# xmcd
#
# Track frame offsets:
# 150
# 13427
# 28501
# 43352
# 57415
# 71695
# 88819
# 104146
# 117408
# 135174
# 149105
# 164729
# 179880
# 193589
# 205760
#
# Disc length: 2929 seconds
#
#
# Revision: 0
# Processed by: cddbd v1.5.2PL0 Copyright (c) Steve Scherf et al.
# Submitted via: FreeRIP 2.945 
#
DISCID=f70b6f0f
DTITLE=Forró Barco a Vela - Navegando para o Sucesso
DYEAR=2006
DGENRE=Forró
TTITLE0=Galera do Coração
TTITLE1=Perdidos
TTITLE2=Uma vez mais
TTITLE3=É amor demais
TTITLE4=Quando você quiser voltar
TTITLE5=Você me viu chorar
TTITLE6=Meu mel meu fel
TTITLE7=Te quero pra mim
TTITLE8=Aguenta coração
TTITLE9=Tudo é nada sem você
TTITLE10=Nóis enrola mas não casa
TTITLE11=Nois dança conforme a dança
TTITLE12=Sentimento
TTITLE13=Azul
TTITLE14=Minha Liberdade
EXTD=NELDVD:2006
EXTT0=
EXTT1=
EXTT2=
EXTT3=
EXTT4=
EXTT5=
EXTT6=
EXTT7=
EXTT8=
EXTT9=
EXTT10=
EXTT11=
EXTT12=
EXTT13=
EXTT14=
PLAYORDER=
